<svg width="24" height="24" viewBox="0 0 24 24" fill="none" xmlns="http://www.w3.org/2000/svg">
<path fill-rule="evenodd" clip-rule="evenodd" d="M16.9248 7.05463C14.151 4.31512 9.64878 4.31512 6.87503 7.05463C5.99068 7.92806 5.38966 8.97288 5.07068 10.0798L7.48841 8.64071L8.51138 10.3593L4.31138 12.8593L3.51329 13.3343L2.98066 12.5735L0.180664 8.57346L1.81913 7.42654L3.19061 9.3858C3.61125 8.01106 4.37131 6.71642 5.46963 5.63166C9.02237 2.12278 14.7774 2.12278 18.3302 5.63166C21.8898 9.14736 21.8898 14.8526 18.3302 18.3683C14.7774 21.8772 9.02237 21.8772 5.46963 18.3683L6.87503 16.9454C9.64878 19.6849 14.151 19.6849 16.9248 16.9454C19.6916 14.2127 19.6916 9.78732 16.9248 7.05463Z" fill="#E8E8E9"/>
</svg>
