<svg width="24" height="24" viewBox="0 0 24 24" fill="none" xmlns="http://www.w3.org/2000/svg">
<path d="M16.9696 9.73218L14.2677 7.03028L16.3795 4.91848C16.7219 4.57607 17.2781 4.57607 17.6205 4.91848L19.085 6.38294C19.426 6.72395 19.426 7.27579 19.085 7.6168L16.9696 9.73218ZM5.23646 16.0617L13.0303 8.26772L15.7322 10.9696L7.93511 18.7668C7.86467 18.8373 7.76895 18.8769 7.66906 18.8769L5.12689 18.8769V16.3259C5.12689 16.2269 5.16625 16.1319 5.23646 16.0617ZM7.66906 20.625C8.23415 20.625 8.77607 20.4007 9.17524 20.0016L20.3251 8.85155C21.3485 7.82818 21.3485 6.17157 20.3251 5.14819L18.8606 3.68373C17.8338 2.65686 16.1663 2.65685 15.1394 3.68372L3.99633 14.8269C3.59848 15.2247 3.375 15.7638 3.375 16.3259V20.0006C3.375 20.3457 3.6554 20.625 4.00063 20.625L7.66906 20.625Z" fill="#4C89EB" stroke="#4C89EB" stroke-width="0.25"/>
</svg>
