<svg width="26" height="16" viewBox="0 0 26 16" fill="none" xmlns="http://www.w3.org/2000/svg">
<path d="M0 16V11.2462C0 9.89638 0.327731 8.51719 0.983193 7.10866C1.63866 5.70014 2.5035 4.37231 3.57773 3.12517C4.65196 1.87804 5.81723 0.836312 7.07353 0L12.208 2.44292C11.1884 3.73407 10.3508 5.08391 9.69538 6.49243C9.05812 7.90096 8.7395 9.47088 8.7395 11.2022V16H0ZM13.792 16V11.2462C13.792 9.89638 14.1197 8.51719 14.7752 7.10866C15.4307 5.70014 16.2955 4.37231 17.3697 3.12517C18.444 1.87804 19.6092 0.836312 20.8655 0L26 2.44292C24.9804 3.73407 24.1429 5.08391 23.4874 6.49243C22.8501 7.90096 22.5315 9.47088 22.5315 11.2022V16H13.792Z" fill="#4C89EB"/>
</svg>
